<?xml version="1.0" encoding="UTF-8" standalone="no"?>
<svg
   xmlns:dc="http://purl.org/dc/elements/1.1/"
   xmlns:cc="http://creativecommons.org/ns#"
   xmlns:rdf="http://www.w3.org/1999/02/22-rdf-syntax-ns#"
   xmlns:svg="http://www.w3.org/2000/svg"
   xmlns="http://www.w3.org/2000/svg"
   id="svg8"
   version="1.1"
   viewBox="0 0 10.583333 10.583334"
   height="40"
   width="40">
  <defs
     id="defs2" />
  <metadata
     id="metadata5">
    <rdf:RDF>
      <cc:Work
         rdf:about="">
        <dc:format>image/svg+xml</dc:format>
        <dc:type
           rdf:resource="http://purl.org/dc/dcmitype/StillImage" />
        <dc:title></dc:title>
      </cc:Work>
    </rdf:RDF>
  </metadata>
  <g
     transform="translate(0,-286.41665)"
     id="layer1">
    <rect
       style="fill:#000000;fill-opacity:0;stroke:none;stroke-width:0.02645833;stroke-opacity:1"
       y="286.41666"
       x="4.7546388e-07"
       height="10.583333"
       width="10.583333"
       id="rect3732" />
    <rect
       style="fill:#389fd6;fill-opacity:1;stroke:none;stroke-width:0.02116666;stroke-opacity:1"
       y="287.47501"
       x="1.0583339"
       height="8.4666662"
       width="8.4666662"
       id="rect3732-3" />
    <path
       id="path4737"
       d="m 6.2864107,295.94167 h 3.2385891 v -3.23859 z"
       style="fill:#eda200;fill-opacity:1;stroke:none;stroke-width:0.08564868px;stroke-linecap:butt;stroke-linejoin:miter;stroke-opacity:1" />
    <path
       id="path4737-9"
       d="m 9.5248835,292.70319 -3.2384728,3.23848 h 1.4177127 l 1.8207601,-1.82076 z"
       style="fill:#db5860;fill-opacity:1;stroke:none;stroke-width:0.08564868px;stroke-linecap:butt;stroke-linejoin:miter;stroke-opacity:1" />
    <path
       id="rect3732-3-6"
       d="m 9.5018822,291.30848 -4.6331839,4.63319 h 1.4177124 l 3.2154715,-3.21547 z"
       style="fill:#59a869;fill-opacity:1;stroke:none;stroke-width:0.02116666;stroke-opacity:1" />
    <path
       id="path4798"
       d="m 1.0555105,292.30161 4.8291376,-4.82914 -4.8263143,0.003 z"
       style="fill:#ffffff;fill-opacity:1;stroke:#ffffff;stroke-width:0.02652448px;stroke-linecap:butt;stroke-linejoin:miter;stroke-opacity:0.98395721" />
    <path
       id="rect4623"
       d="m 5.8846481,287.47247 -2.2027009,2.20271 -0.00417,-0.004 -2.668993,2.66899 0.8705511,0.87055 -0.00136,0.001 0.435847,0.43585 a 1.8872634,1.8872634 0 0 0 0.026687,0.0295 1.8872634,1.8872634 0 0 0 2.6689928,0 1.8872634,1.8872634 0 0 0 0.5189421,-1.67943 1.8872634,1.8872634 0 0 0 1.6879303,-0.5191 1.8872634,1.8872634 0 0 0 0,-2.66899 l 0.00277,-0.003 -0.4681154,-0.46812 z m -5.012e-4,0.93462 0.3993067,0.39931 -1.7348983,1.73489 -0.3993058,-0.3993 z m 0.8656016,0.86925 a 1.2267211,1.2267211 0 0 1 0,1.73484 1.2267211,1.2267211 0 0 1 -1.7348443,0 z m -3.072469,1.32928 0.4034742,0.40348 -1.7348443,1.73484 -0.4034767,-0.40348 z m 0.8695565,0.87363 a 1.2267211,1.2267211 0 0 1 -0.00397,1.73047 1.2267211,1.2267211 0 0 1 -1.7305175,0.004 z"
       style="fill:#ffffff;fill-opacity:1;stroke-width:0.0336582" />
  </g>
</svg>
